<svg id="Layer_1" data-name="Layer 1" xmlns="http://www.w3.org/2000/svg" viewBox="0 0 18 18"><defs><style>.cls-1{fill:none;}.cls-2,.cls-3{fill:#fff;}.cls-3{font-size:3.37px;font-family:MyriadPro-Regular, Myriad Pro;letter-spacing:-0.03em;}.cls-4{letter-spacing:-0.01em;}.cls-5{letter-spacing:0em;}</style></defs><title>Artboard 1</title><path class="cls-1" d="M0,0H18V18H0Z"/><path class="cls-2" d="M15,6H12.75V3H2.25A1.5,1.5,0,0,0,.75,4.5v8.25h1.5a2.25,2.25,0,0,0,4.5,0h4.5a2.25,2.25,0,0,0,4.5,0h1.5V9Zm-.37,1.13L16.09,9H12.75V7.13ZM4.5,13.5a.75.75,0,1,1,.75-.75A.75.75,0,0,1,4.5,13.5Zm1.67-2.25a2.22,2.22,0,0,0-3.33,0H2.25V4.5h9v6.75ZM13.5,13.5a.75.75,0,1,1,.75-.75A.75.75,0,0,1,13.5,13.5Z"/><text class="cls-3" transform="translate(3.64 8.8) rotate(-0.83)">F<tspan class="cls-4" x="1.55" y="0">r</tspan><tspan class="cls-5" x="2.62" y="0">ee</tspan></text></svg>